<mxfile host="app.diagrams.net" modified="2023-09-27T04:39:25.671Z" agent="Mozilla/5.0 (Windows NT 10.0; Win64; x64) AppleWebKit/537.36 (KHTML, like Gecko) Chrome/117.0.0.0 Safari/537.36 Edg/117.0.2045.41" version="21.8.1" etag="5OTV8tO6Wkt9XcUXY8hu" type="github">
  <diagram name="第 1 页" id="UHw2xI1iGe8DDRsMv9rV">
    <mxGraphModel>
      <root>
        <mxCell id="0" />
        <mxCell id="1" parent="0" />
      </root>
    </mxGraphModel>
  </diagram>
</mxfile>
